<svg width="900" height="195" viewBox="0 0 900 195" fill="none" xmlns="http://www.w3.org/2000/svg">
<g clip-path="url(#clip0_69_929)">
<path d="M129.75 32.605V97.3667H81.1787C75.6335 97.3667 70.2187 96.809 64.9883 95.7431C53.0253 93.3191 42.0203 88.2506 32.6074 81.1807C26.473 76.5755 21.0178 71.1202 16.4125 64.9858C9.34267 55.5729 4.27417 44.5679 1.8501 32.605C0.784233 27.3746 0.226562 21.9598 0.226562 16.4145V0.224121H64.9883V16.4145C64.9883 25.3553 72.238 32.605 81.1787 32.605H129.75Z" fill="white"/>
<path d="M129.75 129.748V194.51H81.1787C75.6335 194.51 70.2187 193.952 64.9883 192.886C53.0253 190.462 42.0203 185.394 32.6074 178.324C26.473 173.719 21.0178 168.264 16.4125 162.129C9.34267 152.716 4.27417 141.711 1.8501 129.748C0.784233 124.518 0.226562 119.103 0.226562 113.558V97.3674H64.9883V113.558C64.9883 122.499 72.238 129.748 81.1787 129.748H129.75Z" fill="white"/>
</g>
<path d="M198.418 25.9262V1.35815H344.81V25.9262H285.791V190.513H257.344V25.9262H198.418Z" fill="white"/>
<path d="M345.154 190.513V48.647H371.846V71.1831H373.324C375.91 63.5479 380.466 57.5444 386.993 53.1727C393.582 48.7393 401.032 46.5227 409.344 46.5227C411.069 46.5227 413.1 46.5843 415.44 46.7074C417.842 46.8305 419.72 46.9845 421.074 47.1692V73.5844C419.966 73.2766 417.996 72.9379 415.163 72.5685C412.331 72.1375 409.498 71.9219 406.666 71.9219C400.139 71.9219 394.32 73.3074 389.21 76.0782C384.161 78.7874 380.158 82.5742 377.203 87.4386C374.247 92.2414 372.77 97.7215 372.77 103.879V190.513H345.154Z" fill="white"/>
<path d="M519.782 131.68V48.647H547.491V190.513H520.336V165.945H518.859C515.595 173.519 510.361 179.83 503.157 184.879C496.015 189.867 487.117 192.361 476.465 192.361C467.352 192.361 459.286 190.36 452.266 186.357C445.308 182.293 439.828 176.29 435.826 168.347C431.885 160.404 429.915 150.583 429.915 138.884V48.647H457.531V135.559C457.531 145.226 460.209 152.923 465.566 158.649C470.923 164.375 477.881 167.238 486.44 167.238C491.612 167.238 496.754 165.945 501.864 163.359C507.036 160.773 511.316 156.863 514.702 151.629C518.15 146.396 519.844 139.746 519.782 131.68Z" fill="white"/>
<path d="M675.846 83.2824L650.816 87.7157C649.77 84.5138 648.107 81.4659 645.829 78.5719C643.612 75.678 640.595 73.3074 636.778 71.4601C632.96 69.6129 628.188 68.6893 622.462 68.6893C614.642 68.6893 608.115 70.4442 602.881 73.9539C597.647 77.402 595.03 81.8661 595.03 87.3462C595.03 92.0874 596.785 95.905 600.295 98.799C603.805 101.693 609.47 104.064 617.289 105.911L639.826 111.083C652.879 114.1 662.608 118.749 669.012 125.03C675.415 131.31 678.617 139.469 678.617 149.505C678.617 158.002 676.154 165.576 671.228 172.226C666.364 178.814 659.56 183.987 650.816 187.743C642.135 191.499 632.067 193.377 620.614 193.377C604.728 193.377 591.767 189.99 581.73 183.217C571.694 176.382 565.536 166.684 563.258 154.123L589.951 150.059C591.613 157.017 595.03 162.282 600.203 165.853C605.375 169.363 612.117 171.118 620.43 171.118C629.481 171.118 636.716 169.24 642.135 165.484C647.553 161.666 650.262 157.017 650.262 151.537C650.262 147.104 648.6 143.379 645.275 140.361C642.011 137.344 636.993 135.066 630.22 133.527L606.206 128.262C592.968 125.245 583.177 120.442 576.835 113.854C570.555 107.265 567.414 98.9221 567.414 88.824C567.414 80.4499 569.754 73.1226 574.434 66.8421C579.114 60.5616 585.579 55.6664 593.83 52.1567C602.081 48.5854 611.532 46.7998 622.185 46.7998C637.516 46.7998 649.585 50.1248 658.39 56.7747C667.195 63.3632 673.014 72.199 675.846 83.2824Z" fill="white"/>
<path d="M760.146 48.647V70.8136H682.655V48.647H760.146ZM703.436 14.6581H731.052V148.859C731.052 154.216 731.853 158.249 733.453 160.958C735.054 163.606 737.117 165.422 739.642 166.407C742.228 167.331 745.029 167.793 748.047 167.793C750.263 167.793 752.203 167.639 753.865 167.331C755.528 167.023 756.821 166.777 757.744 166.592L762.732 189.405C761.131 190.021 758.853 190.637 755.897 191.252C752.942 191.93 749.247 192.299 744.814 192.361C737.548 192.484 730.775 191.191 724.495 188.482C718.214 185.772 713.134 181.585 709.255 175.92C705.376 170.256 703.436 163.144 703.436 154.585V14.6581Z" fill="white"/>
<path d="M833.87 193.377C820.57 193.377 808.963 190.329 799.05 184.233C789.137 178.137 781.44 169.609 775.96 158.649C770.48 147.689 767.74 134.881 767.74 120.227C767.74 105.511 770.48 92.6416 775.96 81.6199C781.44 70.5981 789.137 62.0393 799.05 55.9435C808.963 49.8477 820.57 46.7998 833.87 46.7998C847.17 46.7998 858.777 49.8477 868.69 55.9435C878.604 62.0393 886.3 70.5981 891.78 81.6199C897.261 92.6416 900.001 105.511 900.001 120.227C900.001 134.881 897.261 147.689 891.78 158.649C886.3 169.609 878.604 178.137 868.69 184.233C858.777 190.329 847.17 193.377 833.87 193.377ZM833.962 170.194C842.583 170.194 849.725 167.916 855.39 163.359C861.055 158.803 865.242 152.738 867.951 145.164C870.722 137.591 872.108 129.247 872.108 120.134C872.108 111.083 870.722 102.771 867.951 95.1969C865.242 87.5617 861.055 81.4351 855.39 76.8171C849.725 72.199 842.583 69.89 833.962 69.89C825.281 69.89 818.076 72.199 812.35 76.8171C806.685 81.4351 802.467 87.5617 799.697 95.1969C796.987 102.771 795.633 111.083 795.633 120.134C795.633 129.247 796.987 137.591 799.697 145.164C802.467 152.738 806.685 158.803 812.35 163.359C818.076 167.916 825.281 170.194 833.962 170.194Z" fill="white"/>
<defs>
<clipPath id="clip0_69_929">
<rect width="129.973" height="194.735" fill="white"/>
</clipPath>
</defs>
</svg>
